<mxfile host="app.diagrams.net" modified="2024-03-09T06:07:47.121Z" agent="Mozilla/5.0 (Windows NT 10.0; Win64; x64; rv:123.0) Gecko/20100101 Firefox/123.0" etag="nYbzDdyLCDhcEi3twiZC" version="24.0.2" type="github">
  <diagram name="Page-1" id="822b0af5-4adb-64df-f703-e8dfc1f81529">
    <mxGraphModel dx="1498" dy="823" grid="1" gridSize="10" guides="1" tooltips="1" connect="1" arrows="1" fold="1" page="1" pageScale="1" pageWidth="1400" pageHeight="850" background="none" math="0" shadow="0">
      <root>
        <mxCell id="0" />
        <mxCell id="1" style="" parent="0" />
        <mxCell id="vzUK7i6TSwLmify1tvEo-21" value="" style="ellipse;shape=cloud;whiteSpace=wrap;html=1;" parent="1" vertex="1">
          <mxGeometry x="970" y="740" width="120" height="80" as="geometry" />
        </mxCell>
        <mxCell id="vzUK7i6TSwLmify1tvEo-33" value="VPC" style="points=[[0,0],[0.25,0],[0.5,0],[0.75,0],[1,0],[1,0.25],[1,0.5],[1,0.75],[1,1],[0.75,1],[0.5,1],[0.25,1],[0,1],[0,0.75],[0,0.5],[0,0.25]];outlineConnect=0;gradientColor=none;html=1;whiteSpace=wrap;fontSize=12;fontStyle=0;container=1;pointerEvents=0;collapsible=0;recursiveResize=0;shape=mxgraph.aws4.group;grIcon=mxgraph.aws4.group_vpc2;strokeColor=#8C4FFF;fillColor=none;verticalAlign=top;align=left;spacingLeft=30;fontColor=#AAB7B8;dashed=0;" parent="1" vertex="1">
          <mxGeometry x="80" y="60" width="870" height="700" as="geometry" />
        </mxCell>
        <mxCell id="vzUK7i6TSwLmify1tvEo-23" value="Private sub" style="rounded=1;arcSize=0;dashed=0;fillColor=default;gradientColor=none;strokeWidth=2;labelPosition=center;verticalLabelPosition=top;align=center;verticalAlign=bottom;" parent="vzUK7i6TSwLmify1tvEo-33" vertex="1">
          <mxGeometry x="70" y="70" width="270" height="270" as="geometry" />
        </mxCell>
        <mxCell id="vzUK7i6TSwLmify1tvEo-25" value="Subnet:ACL" style="shape=mxgraph.ibm.box;prType=subnet;fontStyle=0;verticalAlign=top;align=left;spacingLeft=32;spacingTop=4;fillColor=default;rounded=0;whiteSpace=wrap;html=1;strokeColor=#00882B;strokeWidth=1;dashed=0;container=1;spacing=-4;collapsible=0;expand=0;recursiveResize=0;gradientColor=none;" parent="vzUK7i6TSwLmify1tvEo-33" vertex="1">
          <mxGeometry x="550" y="50" width="250" height="320" as="geometry" />
        </mxCell>
        <mxCell id="vzUK7i6TSwLmify1tvEo-119" value="80&#xa;443" style="rounded=1;arcSize=10;dashed=1;strokeColor=#F59D56;fillColor=none;gradientColor=none;dashPattern=8 4;strokeWidth=2;labelPosition=center;verticalLabelPosition=bottom;align=center;verticalAlign=top;labelBorderColor=none;" parent="vzUK7i6TSwLmify1tvEo-25" vertex="1">
          <mxGeometry x="26" y="190" width="84" height="100" as="geometry" />
        </mxCell>
        <mxCell id="vzUK7i6TSwLmify1tvEo-65" value="KBN" style="image;aspect=fixed;perimeter=ellipsePerimeter;html=1;align=right;shadow=0;dashed=0;spacingTop=3;image=img/lib/active_directory/generic_server.svg;labelPosition=left;verticalLabelPosition=top;verticalAlign=bottom;" parent="vzUK7i6TSwLmify1tvEo-25" vertex="1">
          <mxGeometry x="160" y="230" width="28.000000000000004" height="50" as="geometry" />
        </mxCell>
        <mxCell id="vzUK7i6TSwLmify1tvEo-47" value="ALB" style="sketch=0;outlineConnect=0;fontColor=#232F3E;gradientColor=none;fillColor=#8C4FFF;strokeColor=none;dashed=0;verticalLabelPosition=bottom;verticalAlign=top;align=center;html=1;fontSize=12;fontStyle=0;aspect=fixed;pointerEvents=1;shape=mxgraph.aws4.application_load_balancer;" parent="vzUK7i6TSwLmify1tvEo-25" vertex="1">
          <mxGeometry x="18.799999999999997" y="40" width="60" height="60" as="geometry" />
        </mxCell>
        <mxCell id="vzUK7i6TSwLmify1tvEo-120" value="5601&#xa;22&#xa;80&#xa;443" style="rounded=1;arcSize=10;dashed=1;strokeColor=#F59D56;fillColor=none;gradientColor=none;dashPattern=8 4;strokeWidth=2;labelPosition=center;verticalLabelPosition=bottom;align=center;verticalAlign=top;labelBorderColor=none;" parent="vzUK7i6TSwLmify1tvEo-25" vertex="1">
          <mxGeometry x="134" y="190" width="80" height="100" as="geometry" />
        </mxCell>
        <mxCell id="vzUK7i6TSwLmify1tvEo-150" value="Z_FRONT" style="image;aspect=fixed;perimeter=ellipsePerimeter;html=1;align=right;shadow=0;dashed=0;spacingTop=3;image=img/lib/active_directory/generic_server.svg;labelPosition=left;verticalLabelPosition=top;verticalAlign=bottom;" parent="vzUK7i6TSwLmify1tvEo-25" vertex="1">
          <mxGeometry x="60" y="226.43" width="18.8" height="33.57" as="geometry" />
        </mxCell>
        <mxCell id="vzUK7i6TSwLmify1tvEo-55" value="" style="image;aspect=fixed;perimeter=ellipsePerimeter;html=1;align=center;shadow=0;dashed=0;spacingTop=3;image=img/lib/active_directory/web_server.svg;" parent="vzUK7i6TSwLmify1tvEo-33" vertex="1">
          <mxGeometry x="280" y="90" width="40" height="50" as="geometry" />
        </mxCell>
        <mxCell id="vzUK7i6TSwLmify1tvEo-78" value="ELK" style="image;aspect=fixed;perimeter=ellipsePerimeter;html=1;align=right;shadow=0;dashed=0;spacingTop=3;image=img/lib/active_directory/generic_server.svg;labelPosition=left;verticalLabelPosition=top;verticalAlign=bottom;" parent="vzUK7i6TSwLmify1tvEo-33" vertex="1">
          <mxGeometry x="260" y="260" width="28.000000000000004" height="50" as="geometry" />
        </mxCell>
        <mxCell id="vzUK7i6TSwLmify1tvEo-121" value="9200&#xa;22" style="rounded=1;arcSize=10;dashed=1;strokeColor=#F59D56;fillColor=none;gradientColor=none;dashPattern=8 4;strokeWidth=2;labelPosition=center;verticalLabelPosition=bottom;align=center;verticalAlign=top;labelBorderColor=none;" parent="vzUK7i6TSwLmify1tvEo-33" vertex="1">
          <mxGeometry x="230" y="230" width="80" height="90" as="geometry" />
        </mxCell>
        <mxCell id="vzUK7i6TSwLmify1tvEo-123" style="edgeStyle=orthogonalEdgeStyle;rounded=0;orthogonalLoop=1;jettySize=auto;html=1;exitX=0;exitY=0.5;exitDx=0;exitDy=0;entryX=0;entryY=1;entryDx=0;entryDy=0;" parent="vzUK7i6TSwLmify1tvEo-33" source="vzUK7i6TSwLmify1tvEo-122" target="vzUK7i6TSwLmify1tvEo-121" edge="1">
          <mxGeometry relative="1" as="geometry">
            <Array as="points">
              <mxPoint x="230" y="370" />
            </Array>
          </mxGeometry>
        </mxCell>
        <mxCell id="vzUK7i6TSwLmify1tvEo-126" style="edgeStyle=orthogonalEdgeStyle;rounded=0;orthogonalLoop=1;jettySize=auto;html=1;exitX=1;exitY=1;exitDx=0;exitDy=0;entryX=0.25;entryY=1;entryDx=0;entryDy=0;" parent="vzUK7i6TSwLmify1tvEo-33" source="vzUK7i6TSwLmify1tvEo-122" target="vzUK7i6TSwLmify1tvEo-120" edge="1">
          <mxGeometry relative="1" as="geometry" />
        </mxCell>
        <mxCell id="vzUK7i6TSwLmify1tvEo-122" value="22" style="rounded=1;arcSize=10;dashed=1;strokeColor=#F59D56;fillColor=none;gradientColor=none;dashPattern=8 4;strokeWidth=2;labelPosition=left;verticalLabelPosition=middle;align=right;verticalAlign=middle;labelBorderColor=none;" parent="vzUK7i6TSwLmify1tvEo-33" vertex="1">
          <mxGeometry x="365" y="440" width="140" height="100" as="geometry" />
        </mxCell>
        <mxCell id="vzUK7i6TSwLmify1tvEo-22" value="Bastion" style="image;html=1;image=img/lib/clip_art/networking/Firewall_02_128x128.png;labelPosition=center;verticalLabelPosition=top;align=center;verticalAlign=bottom;" parent="vzUK7i6TSwLmify1tvEo-33" vertex="1">
          <mxGeometry x="395" y="445" width="80" height="80" as="geometry" />
        </mxCell>
        <mxCell id="vzUK7i6TSwLmify1tvEo-125" style="edgeStyle=orthogonalEdgeStyle;rounded=0;orthogonalLoop=1;jettySize=auto;html=1;exitX=1;exitY=0;exitDx=0;exitDy=0;entryX=-0.016;entryY=0.704;entryDx=0;entryDy=0;entryPerimeter=0;" parent="vzUK7i6TSwLmify1tvEo-33" source="vzUK7i6TSwLmify1tvEo-122" target="vzUK7i6TSwLmify1tvEo-119" edge="1">
          <mxGeometry relative="1" as="geometry" />
        </mxCell>
        <mxCell id="vzUK7i6TSwLmify1tvEo-135" style="edgeStyle=orthogonalEdgeStyle;rounded=0;orthogonalLoop=1;jettySize=auto;html=1;" parent="vzUK7i6TSwLmify1tvEo-33" source="vzUK7i6TSwLmify1tvEo-132" target="vzUK7i6TSwLmify1tvEo-55" edge="1">
          <mxGeometry relative="1" as="geometry" />
        </mxCell>
        <mxCell id="vzUK7i6TSwLmify1tvEo-154" style="edgeStyle=orthogonalEdgeStyle;rounded=0;orthogonalLoop=1;jettySize=auto;html=1;" parent="vzUK7i6TSwLmify1tvEo-33" source="vzUK7i6TSwLmify1tvEo-132" target="vzUK7i6TSwLmify1tvEo-47" edge="1">
          <mxGeometry relative="1" as="geometry" />
        </mxCell>
        <mxCell id="vzUK7i6TSwLmify1tvEo-132" value=" HTTP router" style="image;aspect=fixed;html=1;points=[];align=center;fontSize=12;image=img/lib/azure2/networking/Virtual_Router.svg;" parent="vzUK7i6TSwLmify1tvEo-33" vertex="1">
          <mxGeometry x="285" y="160" width="30" height="30" as="geometry" />
        </mxCell>
        <mxCell id="vzUK7i6TSwLmify1tvEo-152" style="edgeStyle=orthogonalEdgeStyle;rounded=0;orthogonalLoop=1;jettySize=auto;html=1;exitX=1;exitY=1;exitDx=0;exitDy=0;" parent="vzUK7i6TSwLmify1tvEo-33" source="vzUK7i6TSwLmify1tvEo-146" target="vzUK7i6TSwLmify1tvEo-119" edge="1">
          <mxGeometry relative="1" as="geometry">
            <Array as="points">
              <mxPoint x="190" y="400" />
              <mxPoint x="420" y="400" />
              <mxPoint x="420" y="290" />
            </Array>
          </mxGeometry>
        </mxCell>
        <mxCell id="vzUK7i6TSwLmify1tvEo-146" value="5432&#xa;10050&#xa;10051&#xa;22" style="rounded=1;arcSize=10;dashed=1;strokeColor=#F59D56;fillColor=none;gradientColor=none;dashPattern=8 4;strokeWidth=2;labelPosition=center;verticalLabelPosition=bottom;align=center;verticalAlign=top;labelBorderColor=none;" parent="vzUK7i6TSwLmify1tvEo-33" vertex="1">
          <mxGeometry x="80" y="220" width="110" height="100" as="geometry" />
        </mxCell>
        <mxCell id="vzUK7i6TSwLmify1tvEo-147" value="Z_DB2" style="image;aspect=fixed;perimeter=ellipsePerimeter;html=1;align=right;shadow=0;dashed=0;spacingTop=3;image=img/lib/active_directory/generic_server.svg;labelPosition=left;verticalLabelPosition=top;verticalAlign=bottom;" parent="vzUK7i6TSwLmify1tvEo-33" vertex="1">
          <mxGeometry x="149.99999999999997" y="280" width="16.8" height="30" as="geometry" />
        </mxCell>
        <mxCell id="vzUK7i6TSwLmify1tvEo-148" value="Z_SERV" style="image;aspect=fixed;perimeter=ellipsePerimeter;html=1;align=right;shadow=0;dashed=0;spacingTop=3;image=img/lib/active_directory/generic_server.svg;labelPosition=left;verticalLabelPosition=top;verticalAlign=bottom;" parent="vzUK7i6TSwLmify1tvEo-33" vertex="1">
          <mxGeometry x="150" y="220" width="16.8" height="30" as="geometry" />
        </mxCell>
        <mxCell id="vzUK7i6TSwLmify1tvEo-153" value="Z_DB1" style="image;aspect=fixed;perimeter=ellipsePerimeter;html=1;align=right;shadow=0;dashed=0;spacingTop=3;image=img/lib/active_directory/generic_server.svg;labelPosition=left;verticalLabelPosition=top;verticalAlign=bottom;" parent="vzUK7i6TSwLmify1tvEo-33" vertex="1">
          <mxGeometry x="99.99999999999997" y="280" width="16.8" height="30" as="geometry" />
        </mxCell>
        <mxCell id="vzUK7i6TSwLmify1tvEo-24" value="" style="dashed=0;html=1;shape=mxgraph.aws3.permissions;fillColor=#D9A741;gradientColor=none;dashed=0;" parent="vzUK7i6TSwLmify1tvEo-33" vertex="1">
          <mxGeometry x="93.4" y="30" width="30" height="35" as="geometry" />
        </mxCell>
        <mxCell id="TTI0I26ihcTUOv5LXeap-3" style="edgeStyle=orthogonalEdgeStyle;rounded=0;orthogonalLoop=1;jettySize=auto;html=1;exitX=1;exitY=0.5;exitDx=0;exitDy=0;entryX=0.017;entryY=0.445;entryDx=0;entryDy=0;entryPerimeter=0;" parent="vzUK7i6TSwLmify1tvEo-33" source="vzUK7i6TSwLmify1tvEo-146" target="vzUK7i6TSwLmify1tvEo-121" edge="1">
          <mxGeometry relative="1" as="geometry" />
        </mxCell>
        <mxCell id="TTI0I26ihcTUOv5LXeap-5" style="edgeStyle=orthogonalEdgeStyle;rounded=0;orthogonalLoop=1;jettySize=auto;html=1;exitX=1;exitY=0.75;exitDx=0;exitDy=0;entryX=0.092;entryY=0.998;entryDx=0;entryDy=0;entryPerimeter=0;" parent="vzUK7i6TSwLmify1tvEo-33" source="vzUK7i6TSwLmify1tvEo-146" target="vzUK7i6TSwLmify1tvEo-120" edge="1">
          <mxGeometry relative="1" as="geometry" />
        </mxCell>
        <mxCell id="vzUK7i6TSwLmify1tvEo-130" style="edgeStyle=orthogonalEdgeStyle;rounded=0;orthogonalLoop=1;jettySize=auto;html=1;exitX=0;exitY=0.5;exitDx=0;exitDy=0;exitPerimeter=0;" parent="1" source="vzUK7i6TSwLmify1tvEo-35" target="vzUK7i6TSwLmify1tvEo-21" edge="1">
          <mxGeometry relative="1" as="geometry" />
        </mxCell>
        <mxCell id="vzUK7i6TSwLmify1tvEo-35" value="" style="fontColor=#0066CC;verticalAlign=top;verticalLabelPosition=bottom;labelPosition=center;align=center;html=1;outlineConnect=0;fillColor=#CCCCCC;strokeColor=#6881B3;gradientColor=none;gradientDirection=north;strokeWidth=2;shape=mxgraph.networks.pc;" parent="1" vertex="1">
          <mxGeometry x="1240" y="745" width="100" height="70" as="geometry" />
        </mxCell>
        <mxCell id="vzUK7i6TSwLmify1tvEo-54" value="" style="image;aspect=fixed;perimeter=ellipsePerimeter;html=1;align=center;shadow=0;dashed=0;spacingTop=3;image=img/lib/active_directory/web_server.svg;" parent="1" vertex="1">
          <mxGeometry x="240" y="150" width="40" height="50" as="geometry" />
        </mxCell>
        <mxCell id="vzUK7i6TSwLmify1tvEo-56" value="" style="image;aspect=fixed;perimeter=ellipsePerimeter;html=1;align=center;shadow=0;dashed=0;spacingTop=3;image=img/lib/active_directory/web_server.svg;" parent="1" vertex="1">
          <mxGeometry x="305" y="150" width="40" height="50" as="geometry" />
        </mxCell>
        <mxCell id="vzUK7i6TSwLmify1tvEo-124" style="edgeStyle=orthogonalEdgeStyle;rounded=0;orthogonalLoop=1;jettySize=auto;html=1;exitX=0.75;exitY=0;exitDx=0;exitDy=0;entryX=0.627;entryY=1.003;entryDx=0;entryDy=0;entryPerimeter=0;" parent="1" source="vzUK7i6TSwLmify1tvEo-122" target="vzUK7i6TSwLmify1tvEo-118" edge="1">
          <mxGeometry relative="1" as="geometry" />
        </mxCell>
        <mxCell id="vzUK7i6TSwLmify1tvEo-129" style="edgeStyle=orthogonalEdgeStyle;rounded=0;orthogonalLoop=1;jettySize=auto;html=1;exitX=0.5;exitY=1;exitDx=0;exitDy=0;entryX=0.785;entryY=0.171;entryDx=0;entryDy=0;entryPerimeter=0;" parent="1" source="vzUK7i6TSwLmify1tvEo-122" target="vzUK7i6TSwLmify1tvEo-21" edge="1">
          <mxGeometry relative="1" as="geometry" />
        </mxCell>
        <mxCell id="vzUK7i6TSwLmify1tvEo-136" style="edgeStyle=orthogonalEdgeStyle;rounded=0;orthogonalLoop=1;jettySize=auto;html=1;" parent="1" source="vzUK7i6TSwLmify1tvEo-132" target="vzUK7i6TSwLmify1tvEo-56" edge="1">
          <mxGeometry relative="1" as="geometry" />
        </mxCell>
        <mxCell id="vzUK7i6TSwLmify1tvEo-137" style="edgeStyle=orthogonalEdgeStyle;rounded=0;orthogonalLoop=1;jettySize=auto;html=1;" parent="1" source="vzUK7i6TSwLmify1tvEo-132" target="vzUK7i6TSwLmify1tvEo-54" edge="1">
          <mxGeometry relative="1" as="geometry" />
        </mxCell>
        <mxCell id="vzUK7i6TSwLmify1tvEo-143" style="edgeStyle=orthogonalEdgeStyle;rounded=0;orthogonalLoop=1;jettySize=auto;html=1;entryX=0.288;entryY=0.185;entryDx=0;entryDy=0;entryPerimeter=0;" parent="1" source="vzUK7i6TSwLmify1tvEo-120" target="vzUK7i6TSwLmify1tvEo-21" edge="1">
          <mxGeometry relative="1" as="geometry" />
        </mxCell>
        <mxCell id="vzUK7i6TSwLmify1tvEo-151" style="edgeStyle=orthogonalEdgeStyle;rounded=0;orthogonalLoop=1;jettySize=auto;html=1;exitX=0.5;exitY=1;exitDx=0;exitDy=0;entryX=0.13;entryY=0.77;entryDx=0;entryDy=0;entryPerimeter=0;" parent="1" source="vzUK7i6TSwLmify1tvEo-119" target="vzUK7i6TSwLmify1tvEo-21" edge="1">
          <mxGeometry relative="1" as="geometry">
            <Array as="points">
              <mxPoint x="698" y="640" />
              <mxPoint x="976" y="640" />
            </Array>
          </mxGeometry>
        </mxCell>
        <mxCell id="vzUK7i6TSwLmify1tvEo-118" value="22&#xa;443&#xa;80&#xa;10050&#xa;10051&#xa;5601&#xa;9200" style="rounded=1;arcSize=16;dashed=1;strokeColor=#F59D56;fillColor=none;gradientColor=none;dashPattern=8 4;strokeWidth=2;labelPosition=center;verticalLabelPosition=middle;align=center;verticalAlign=middle;labelBorderColor=none;" parent="1" vertex="1">
          <mxGeometry x="230" y="140" width="510" height="130" as="geometry" />
        </mxCell>
        <mxCell id="TTI0I26ihcTUOv5LXeap-1" style="edgeStyle=orthogonalEdgeStyle;rounded=0;orthogonalLoop=1;jettySize=auto;html=1;exitX=1;exitY=0.5;exitDx=0;exitDy=0;entryX=0.625;entryY=0.2;entryDx=0;entryDy=0;entryPerimeter=0;" parent="1" source="vzUK7i6TSwLmify1tvEo-118" target="vzUK7i6TSwLmify1tvEo-21" edge="1">
          <mxGeometry relative="1" as="geometry" />
        </mxCell>
        <mxCell id="TTI0I26ihcTUOv5LXeap-4" style="edgeStyle=orthogonalEdgeStyle;rounded=0;orthogonalLoop=1;jettySize=auto;html=1;exitX=1;exitY=0;exitDx=0;exitDy=0;entryX=0.124;entryY=1.01;entryDx=0;entryDy=0;entryPerimeter=0;" parent="1" source="vzUK7i6TSwLmify1tvEo-146" target="vzUK7i6TSwLmify1tvEo-118" edge="1">
          <mxGeometry relative="1" as="geometry" />
        </mxCell>
      </root>
    </mxGraphModel>
  </diagram>
</mxfile>
